<mxfile host="app.diagrams.net" modified="2021-02-11T08:55:53.388Z" agent="5.0 (Windows NT 10.0; Win64; x64) AppleWebKit/537.36 (KHTML, like Gecko) Chrome/88.0.4324.150 Safari/537.36" etag="WbZxEbA3EMPS-qJeEbff" version="14.3.0" type="github">
  <diagram id="xP5Ll8GXDZ5xJUYe51bo" name="Page-1">
    <mxGraphModel dx="1422" dy="705" grid="1" gridSize="10" guides="1" tooltips="1" connect="1" arrows="1" fold="1" page="1" pageScale="1" pageWidth="827" pageHeight="1169" math="0" shadow="0">
      <root>
        <mxCell id="0" />
        <mxCell id="1" parent="0" />
        <mxCell id="E_j9EKvlOpSluc4JT5pd-12" value="" style="endArrow=none;html=1;exitX=0.5;exitY=1;exitDx=0;exitDy=0;" edge="1" parent="1" source="E_j9EKvlOpSluc4JT5pd-11">
          <mxGeometry width="50" height="50" relative="1" as="geometry">
            <mxPoint x="350" y="180" as="sourcePoint" />
            <mxPoint x="400" y="130" as="targetPoint" />
          </mxGeometry>
        </mxCell>
        <mxCell id="E_j9EKvlOpSluc4JT5pd-1" value="" style="rounded=0;whiteSpace=wrap;html=1;" vertex="1" parent="1">
          <mxGeometry x="340" y="70" width="120" height="60" as="geometry" />
        </mxCell>
        <mxCell id="E_j9EKvlOpSluc4JT5pd-2" value="APP" style="text;html=1;strokeColor=none;fillColor=none;align=center;verticalAlign=middle;whiteSpace=wrap;rounded=0;" vertex="1" parent="1">
          <mxGeometry x="380" y="90" width="40" height="20" as="geometry" />
        </mxCell>
        <mxCell id="E_j9EKvlOpSluc4JT5pd-3" value="" style="rounded=0;whiteSpace=wrap;html=1;" vertex="1" parent="1">
          <mxGeometry x="340" y="189" width="120" height="60" as="geometry" />
        </mxCell>
        <mxCell id="E_j9EKvlOpSluc4JT5pd-4" value="Hotel" style="text;html=1;strokeColor=none;fillColor=none;align=center;verticalAlign=middle;whiteSpace=wrap;rounded=0;" vertex="1" parent="1">
          <mxGeometry x="380" y="209" width="40" height="20" as="geometry" />
        </mxCell>
        <mxCell id="E_j9EKvlOpSluc4JT5pd-5" value="Component" style="text;html=1;strokeColor=none;fillColor=none;align=center;verticalAlign=middle;whiteSpace=wrap;rounded=0;" vertex="1" parent="1">
          <mxGeometry x="350" y="20" width="100" height="20" as="geometry" />
        </mxCell>
        <mxCell id="E_j9EKvlOpSluc4JT5pd-6" value="" style="rounded=0;whiteSpace=wrap;html=1;" vertex="1" parent="1">
          <mxGeometry x="340" y="317" width="120" height="60" as="geometry" />
        </mxCell>
        <mxCell id="E_j9EKvlOpSluc4JT5pd-7" value="HotelName" style="text;html=1;strokeColor=none;fillColor=none;align=center;verticalAlign=middle;whiteSpace=wrap;rounded=0;" vertex="1" parent="1">
          <mxGeometry x="380" y="337" width="40" height="20" as="geometry" />
        </mxCell>
        <mxCell id="E_j9EKvlOpSluc4JT5pd-8" value="" style="rounded=0;whiteSpace=wrap;html=1;" vertex="1" parent="1">
          <mxGeometry x="340" y="441" width="120" height="60" as="geometry" />
        </mxCell>
        <mxCell id="E_j9EKvlOpSluc4JT5pd-9" value="HotelSelect" style="text;html=1;strokeColor=none;fillColor=none;align=center;verticalAlign=middle;whiteSpace=wrap;rounded=0;" vertex="1" parent="1">
          <mxGeometry x="380" y="461" width="40" height="20" as="geometry" />
        </mxCell>
        <mxCell id="E_j9EKvlOpSluc4JT5pd-10" value="" style="rounded=0;whiteSpace=wrap;html=1;" vertex="1" parent="1">
          <mxGeometry x="340" y="571" width="120" height="60" as="geometry" />
        </mxCell>
        <mxCell id="E_j9EKvlOpSluc4JT5pd-11" value="HotelResult" style="text;html=1;strokeColor=none;fillColor=none;align=center;verticalAlign=middle;whiteSpace=wrap;rounded=0;" vertex="1" parent="1">
          <mxGeometry x="380" y="591" width="40" height="20" as="geometry" />
        </mxCell>
      </root>
    </mxGraphModel>
  </diagram>
</mxfile>
